<?xml version="1.0" encoding="UTF-8" standalone="no"?>
<!-- Created with Inkscape (http://www.inkscape.org/) -->

<svg
   xmlns:dc="http://purl.org/dc/elements/1.1/"
   xmlns:cc="http://creativecommons.org/ns#"
   xmlns:rdf="http://www.w3.org/1999/02/22-rdf-syntax-ns#"
   xmlns:svg="http://www.w3.org/2000/svg"
   xmlns="http://www.w3.org/2000/svg"
   xmlns:sodipodi="http://sodipodi.sourceforge.net/DTD/sodipodi-0.dtd"
   xmlns:inkscape="http://www.inkscape.org/namespaces/inkscape"
   width="82.294006mm"
   height="69.188858mm"
   viewBox="0 0 82.294006 69.188858"
   version="1.1"
   id="svg3853"
   inkscape:version="0.92.4 (5da689c313, 2019-01-14)"
   sodipodi:docname="Logo_fortress.svg">
  <defs
     id="defs3847" />
  <sodipodi:namedview
     id="base"
     pagecolor="#ffffff"
     bordercolor="#666666"
     borderopacity="1.0"
     inkscape:pageopacity="0.0"
     inkscape:pageshadow="2"
     inkscape:zoom="1.4"
     inkscape:cx="134.51875"
     inkscape:cy="109.04532"
     inkscape:document-units="mm"
     inkscape:current-layer="layer1"
     showgrid="false"
     fit-margin-top="0"
     fit-margin-left="0"
     fit-margin-right="0"
     fit-margin-bottom="0"
     inkscape:window-width="1920"
     inkscape:window-height="1017"
     inkscape:window-x="-8"
     inkscape:window-y="-8"
     inkscape:window-maximized="1" />
  <metadata
     id="metadata3850">
    <rdf:RDF>
      <cc:Work
         rdf:about="">
        <dc:format>image/svg+xml</dc:format>
        <dc:type
           rdf:resource="http://purl.org/dc/dcmitype/StillImage" />
        <dc:title></dc:title>
      </cc:Work>
    </rdf:RDF>
  </metadata>
  <g
     inkscape:label="Layer 1"
     inkscape:groupmode="layer"
     id="layer1"
     transform="translate(-64.489817,-128.50766)">
    <path
       inkscape:connector-curvature="0"
       id="path3878"
       d="m 64.540205,197.56259 c -0.06763,-0.17625 -0.06696,-50.10366 6.78e-4,-50.27992 0.05675,-0.14788 1.275904,-0.88158 5.874595,-3.53539 1.653117,-0.95398 4.902381,-2.8303 7.220587,-4.16961 2.318206,-1.33932 4.289881,-2.45472 4.3815,-2.47868 0.164132,-0.0429 0.16658,0.0231 0.16658,4.49099 0,2.494 0.02911,4.55253 0.0647,4.57453 0.03558,0.022 1.416708,-0.74038 3.069166,-1.69416 1.652458,-0.95378 4.328445,-2.49723 5.946637,-3.42988 l 2.942167,-1.69574 0.01114,-1.19827 c 0.0061,-0.65906 0.0347,-1.6297 0.0635,-2.15698 l 0.05236,-0.95871 4.106334,-2.37053 c 2.258481,-1.3038 4.801661,-2.7715 5.651501,-3.26156 l 1.54517,-0.89102 1.54516,0.89102 c 0.84985,0.49006 3.39302,1.95776 5.6515,3.26156 l 4.10634,2.37053 0.0524,0.95871 c 0.0288,0.52728 0.0574,1.49792 0.0635,2.15698 l 0.0111,1.19827 2.94216,1.69574 c 1.6182,0.93265 4.29418,2.4761 5.94664,3.42988 1.65246,0.95378 3.03359,1.71615 3.06917,1.69416 0.0356,-0.022 0.0647,-2.08053 0.0647,-4.57453 0,-4.46788 0.002,-4.53391 0.16658,-4.49099 0.0916,0.024 2.06329,1.13936 4.3815,2.47868 2.3182,1.33931 5.56747,3.21563 7.22058,4.16961 4.59869,2.65381 5.81786,3.38751 5.8746,3.53539 0.0676,0.17626 0.0683,50.10367 8.5e-4,50.27992 -0.0453,0.11804 -0.35549,0.13393 -2.61561,0.13393 -2.26013,0 -2.57031,-0.0159 -2.61561,-0.13393 -0.0283,-0.0737 -0.0514,-10.54649 -0.0514,-23.27297 0,-19.21942 -0.0192,-23.15496 -0.11329,-23.23306 -0.0623,-0.0517 -0.83383,-0.51095 -1.7145,-1.02055 l -1.60121,-0.92654 -0.0214,17.81925 c -0.0185,15.45617 -0.0376,17.82549 -0.14386,17.86627 -0.1102,0.0423 -4.45657,-2.40614 -5.90962,-3.32904 l -0.5715,-0.36299 v -7.75662 c 0,-6.1715 -0.0216,-7.74793 -0.10583,-7.71413 -0.0582,0.0234 -1.00118,0.56075 -2.0955,1.19419 -1.09432,0.63343 -2.06587,1.15051 -2.159,1.14905 -0.0931,-0.001 -1.27423,-0.64475 -2.62467,-1.42955 l -2.45533,-1.42691 -0.0216,8.27446 -0.0216,8.27446 -2.75266,1.58816 c -1.60331,0.92503 -2.8051,1.56802 -2.87825,1.53995 -0.0854,-0.0327 -0.1256,-0.17068 -0.1256,-0.43048 v -0.38229 l -0.28863,0.13765 c -0.15875,0.0757 -0.34934,0.11434 -0.42353,0.0859 -0.12292,-0.0472 -0.133,-1.66529 -0.11353,-18.23652 l 0.0212,-18.18475 0.21167,0.003 c 0.11971,0.002 2.48406,1.31675 5.44209,3.02649 l 5.23043,3.02317 1.40084,-0.81482 c 0.77046,-0.44815 1.36952,-0.84418 1.33124,-0.88008 -0.0383,-0.0359 -3.3843,-1.97711 -7.4356,-4.31379 -4.0513,-2.33668 -7.41215,-4.29316 -7.46854,-4.34773 -0.0713,-0.069 -0.12049,-0.72507 -0.16146,-2.15305 -0.0377,-1.31295 -0.0923,-2.08139 -0.15146,-2.13023 -0.0885,-0.073 -1.2094,-0.72391 -5.95571,-3.45823 l -2.13783,-1.23159 -2.13784,1.23159 c -4.746309,2.73432 -5.867242,3.3852 -5.955703,3.45823 -0.05915,0.0488 -0.113841,0.8172 -0.151575,2.12941 -0.03328,1.15737 -0.09567,2.0903 -0.143002,2.1385 -0.04618,0.047 -3.978472,2.3349 -8.738425,5.08418 l -8.654461,4.99869 -0.02175,5.81116 -0.02175,5.81115 2.604082,-1.50689 2.604081,-1.5069 0.02177,-5.54387 c 0.02022,-5.14971 0.03226,-5.553 0.169333,-5.67222 0.139727,-0.12152 4.826164,-2.84293 5.424144,-3.14979 0.352199,-0.18073 0.523085,-0.0693 0.523085,0.34098 v 0.28459 l 0.288638,-0.13764 c 0.15875,-0.0757 0.34925,-0.11438 0.423333,-0.0859 0.122513,0.047 0.134579,1.53177 0.1334,16.41618 -6.78e-4,9.00047 -0.02929,16.40806 -0.0635,16.46132 -0.09613,0.14964 -6.380279,3.7555 -6.544933,3.7555 -0.1688,0 -0.248272,-0.16552 -0.248272,-0.5171 v -0.24925 l -0.261642,0.1353 c -0.531221,0.27471 -0.500358,0.68253 -0.500358,-6.6115 0,-5.43991 -0.02023,-6.6502 -0.110772,-6.62782 -0.06092,0.0151 -2.304299,1.29474 -4.985277,2.84374 -3.169009,1.83097 -4.922459,2.79797 -5.011562,2.76377 -0.09741,-0.0374 -0.137056,-0.15978 -0.137056,-0.42316 v -0.37057 l -0.288638,0.13764 c -0.607355,0.28963 -0.561107,1.15611 -0.537207,-10.06485 l 0.02151,-10.09884 2.4765,-1.42966 2.4765,-1.42965 v -3.24336 c 0,-2.00277 -0.0314,-3.26277 -0.08208,-3.29409 -0.07052,-0.0436 -7.502145,4.17862 -8.151754,4.63133 l -0.232833,0.16227 v 23.14364 c 0,12.72901 -0.02313,23.20391 -0.05139,23.27757 -0.0453,0.11804 -0.355482,0.13393 -2.615608,0.13393 -2.260126,0 -2.570312,-0.0159 -2.615609,-0.13393 z m 70.062915,-48.57058 c 0.83086,-0.4773 1.51134,-0.89291 1.51217,-0.92357 0.003,-0.0996 -2.96262,-1.77408 -3.04816,-1.72122 -0.0913,0.0564 -0.11967,3.51263 -0.0288,3.51263 0.0298,0 0.73396,-0.39053 1.56481,-0.86784 z m -60.410982,48.54972 c -0.02383,-0.0386 0.05964,-0.21485 0.185503,-0.39175 l 0.22884,-0.32162 v -4.75794 -4.75794 l -0.232834,-0.35183 c -0.128058,-0.19351 -0.232833,-0.37171 -0.232833,-0.39599 0,-0.0243 1.61925,-0.0442 3.598334,-0.0442 h 3.598333 v 1.06821 c 0,1.21089 0.06146,1.14165 -0.747284,0.84193 -0.298381,-0.11058 -0.667225,-0.13149 -1.989667,-0.11277 l -1.623382,0.023 -0.02376,1.0349 -0.02375,1.03491 0.223169,0.056 c 0.122744,0.0308 0.649157,0.0372 1.169807,0.0142 0.714625,-0.0315 1.046713,-0.0861 1.354954,-0.2224 0.224574,-0.0993 0.442275,-0.15963 0.48378,-0.13397 0.09338,0.0577 0.101218,2.46607 0.0082,2.52354 -0.03699,0.0229 -0.23701,-0.0396 -0.4445,-0.13891 -0.327753,-0.15678 -0.532782,-0.18102 -1.562586,-0.18473 l -1.185333,-0.004 -0.02259,2.2338 -0.02259,2.23379 0.213095,0.36362 c 0.117201,0.19999 0.213094,0.38541 0.213094,0.41204 0,0.0773 -3.118036,0.0559 -3.166009,-0.0217 z m 8.62701,-0.0486 c -0.1397,-0.0617 -0.3302,-0.1975 -0.423333,-0.30186 -0.164578,-0.18441 -0.169985,-0.32656 -0.192529,-5.061 -0.02562,-5.38116 -0.05235,-5.09841 0.514629,-5.44412 0.25257,-0.154 0.442324,-0.16497 2.8529,-0.16497 2.441053,0 2.597666,0.009 2.862595,0.17087 0.528602,0.32228 0.524072,0.27577 0.524072,5.37981 0,5.19469 0.01498,5.06069 -0.600945,5.37491 -0.299571,0.15283 -0.50809,0.16486 -2.803516,0.16179 -1.867697,-0.002 -2.542575,-0.031 -2.733873,-0.11543 z m 3.69321,-1.90483 c 0.157824,-0.19491 0.16359,-0.34308 0.14068,-3.61534 -0.01863,-2.66136 -0.04811,-3.4363 -0.133957,-3.52209 -0.07564,-0.0756 -0.375727,-0.10999 -0.959325,-0.10999 -0.742956,0 -0.864301,0.0206 -0.969433,0.16435 -0.166102,0.22716 -0.179564,6.88274 -0.01434,7.09106 0.16298,0.2055 0.304496,0.23389 1.065821,0.21384 0.631313,-0.0166 0.723394,-0.0401 0.870556,-0.22183 z m 3.427781,1.95346 c -0.02383,-0.0386 0.05964,-0.21485 0.185503,-0.39175 l 0.22884,-0.32162 v -4.75794 -4.75794 l -0.232834,-0.35183 c -0.128058,-0.19351 -0.232833,-0.37171 -0.232833,-0.39599 0,-0.0243 1.484574,-0.0442 3.299054,-0.0442 h 3.299054 l 0.299279,0.26278 0.29928,0.26277 v 1.80826 c 0,2.04818 0.01854,1.98994 -0.731871,2.29849 -0.202488,0.0832 -0.368304,0.18189 -0.368478,0.21919 -1.69e-4,0.0373 0.142557,0.12739 0.317182,0.20019 0.174625,0.0728 0.41963,0.20491 0.544454,0.29359 l 0.226953,0.16122 0.02705,2.40088 0.02705,2.40087 0.22884,0.32143 c 0.125861,0.17679 0.209338,0.35298 0.185503,0.39155 -0.06181,0.10001 -3.166009,0.0894 -3.166009,-0.0108 0,-0.0445 0.09525,-0.22126 0.211666,-0.39281 l 0.211667,-0.31191 v -2.14523 -2.14524 l -0.201668,-0.13214 c -0.155868,-0.10212 -0.391419,-0.1266 -1.037167,-0.10778 l -0.835498,0.0243 -0.02259,2.23379 -0.02259,2.23379 0.213095,0.36362 c 0.117202,0.19999 0.213095,0.38541 0.213095,0.41204 0,0.0773 -3.118036,0.0559 -3.16601,-0.0217 z m 4.722457,-7.20301 c 0.108911,-0.0904 0.136621,-0.28019 0.13559,-0.92874 -6.78e-4,-0.44832 -0.03736,-0.87228 -0.08143,-0.94213 -0.06351,-0.10066 -0.278382,-0.127 -1.03587,-0.127 h -0.955737 l -0.02398,1.00926 c -0.01778,0.74852 0.0041,1.02843 0.08467,1.08342 0.169933,0.11599 1.716933,0.0378 1.876759,-0.0948 z m 5.640224,7.19222 c 0,-0.0445 0.0956,-0.22178 0.21244,-0.39396 l 0.21244,-0.31305 -0.0219,-4.24154 -0.0219,-4.24154 -0.51836,-0.0249 c -0.36635,-0.0176 -0.65189,0.0258 -0.97367,0.14813 -0.250416,0.0952 -0.502928,0.17307 -0.561136,0.17309 -0.07903,3e-5 -0.105833,-0.26824 -0.105833,-1.05926 v -1.05931 l 3.365499,0.0221 3.3655,0.0221 0.0238,1.03716 c 0.0269,1.17556 0.0632,1.12932 -0.68076,0.86784 -0.65546,-0.23038 -1.37911,-0.22965 -1.50282,0.002 -0.0629,0.11748 -0.0836,1.44862 -0.0665,4.26081 l 0.025,4.08995 0.22793,0.34431 c 0.12537,0.18937 0.20474,0.36751 0.17639,0.39586 -0.0875,0.0875 -3.15599,0.0589 -3.15599,-0.0294 z m 5.97799,0.0108 c -0.0238,-0.0386 0.0596,-0.21485 0.1855,-0.39175 l 0.22884,-0.32162 v -4.75794 -4.75794 l -0.23283,-0.35183 c -0.12806,-0.19351 -0.23284,-0.37171 -0.23284,-0.39599 0,-0.0243 1.48458,-0.0442 3.29906,-0.0442 h 3.29905 l 0.29928,0.26278 0.29928,0.26277 v 1.80826 c 0,2.04818 0.0185,1.98994 -0.73187,2.29849 -0.20249,0.0832 -0.3683,0.18189 -0.36848,0.21919 0,0.0373 0.14256,0.12739 0.31718,0.20019 0.17463,0.0728 0.41963,0.20491 0.54446,0.29359 l 0.22695,0.16122 0.027,2.40088 0.027,2.40087 0.22884,0.32143 c 0.12587,0.17679 0.20934,0.35298 0.18551,0.39155 -0.0618,0.10001 -3.16601,0.0894 -3.16601,-0.0108 0,-0.0445 0.0953,-0.22126 0.21166,-0.39281 l 0.21167,-0.31191 v -2.14523 -2.14524 l -0.20167,-0.13214 c -0.15587,-0.10212 -0.39142,-0.1266 -1.03716,-0.10778 l -0.8355,0.0243 -0.0226,2.23379 -0.0226,2.23379 0.21309,0.36362 c 0.1172,0.19999 0.2131,0.38541 0.2131,0.41204 0,0.0773 -3.11804,0.0559 -3.16601,-0.0217 z m 4.72245,-7.20301 c 0.10892,-0.0904 0.13663,-0.28019 0.1356,-0.92874 -8.5e-4,-0.44832 -0.0374,-0.87228 -0.0814,-0.94213 -0.0635,-0.10066 -0.27837,-0.127 -1.03586,-0.127 h -0.95574 l -0.024,1.00926 c -0.0178,0.74852 0.004,1.02843 0.0847,1.08342 0.16993,0.11599 1.71693,0.0378 1.87675,-0.0948 z m 3.99822,7.20301 c -0.0238,-0.0386 0.0596,-0.21485 0.1855,-0.39175 l 0.22884,-0.32162 v -4.75794 -4.75794 l -0.23284,-0.35183 c -0.12805,-0.19351 -0.23283,-0.37171 -0.23283,-0.39599 0,-0.0243 1.61925,-0.0442 3.59833,-0.0442 h 3.59834 v 1.06821 c 0,1.21089 0.0615,1.14165 -0.74729,0.84193 -0.29838,-0.11058 -0.66722,-0.13149 -1.98966,-0.11277 l -1.62339,0.023 -0.0238,1.0349 -0.0237,1.03491 0.21935,0.0551 c 0.12064,0.0303 0.64569,0.0381 1.16675,0.0173 0.73017,-0.0291 1.04173,-0.0798 1.35877,-0.22143 0.22626,-0.10104 0.44533,-0.16273 0.48684,-0.13707 0.0415,0.0256 0.0755,0.60116 0.0755,1.27891 v 1.23228 l -0.23283,-0.0439 c -0.12806,-0.0241 -0.39862,-0.10581 -0.60125,-0.18148 -0.28209,-0.10534 -0.60937,-0.13202 -1.397,-0.11387 l -1.02859,0.0237 v 1.73567 1.73566 l 1.58434,0.023 c 1.61725,0.0235 1.73412,0.007 2.62783,-0.36105 0.13669,-0.0564 0.14817,0.0249 0.14817,1.04863 v 1.10973 h -3.55101 c -1.95305,0 -3.5705,-0.0316 -3.59433,-0.0701 z m 8.53831,-0.0471 c -0.48908,-0.21641 -0.54631,-0.41104 -0.54631,-1.85803 0,-1.21564 0.0126,-1.31994 0.18647,-1.54095 0.20203,-0.25683 1.87877,-1.09756 2.01771,-1.01169 0.0463,0.0286 0.0818,0.55802 0.0818,1.21778 0,1.482 0.006,1.48979 1.11704,1.48979 1.08335,0 1.0843,-0.002 1.0843,-1.73566 0,-1.86002 0.16022,-1.72412 -2.09627,-1.778 -2.53653,-0.0606 -2.38667,0.12014 -2.38919,-2.881 -0.002,-2.45747 0.004,-2.48961 0.50706,-2.74982 0.37115,-0.19193 5.3946,-0.18661 5.76727,0.006 0.34894,0.18044 0.49713,0.58177 0.49713,1.34632 0,0.7313 -0.004,0.73386 -0.69019,0.46332 -0.40052,-0.15787 -0.59004,-0.17191 -1.99978,-0.14817 -1.86918,0.0315 -1.79802,-0.0113 -1.79607,1.07958 8.5e-4,0.39856 0.032,0.77298 0.0695,0.83204 0.13121,0.20671 0.65997,0.27362 2.16237,0.27362 1.38378,0 1.53905,0.0151 1.79809,0.17523 0.4444,0.27465 0.46948,0.47807 0.44012,3.56974 l -0.0263,2.77132 -0.27669,0.27668 -0.27669,0.27669 -2.68664,0.0196 c -2.10409,0.0154 -2.7426,-0.005 -2.94468,-0.0945 z m 7.62,0 c -0.48908,-0.21641 -0.5463,-0.41104 -0.5463,-1.85803 0,-1.21564 0.0126,-1.31994 0.18647,-1.54095 0.20202,-0.25683 1.87877,-1.09756 2.0177,-1.01169 0.0463,0.0286 0.0818,0.55802 0.0818,1.21778 0,1.482 0.006,1.48979 1.11703,1.48979 1.08335,0 1.0843,-0.002 1.0843,-1.73566 0,-1.86002 0.16022,-1.72412 -2.09627,-1.778 -2.53653,-0.0606 -2.38667,0.12014 -2.38919,-2.881 -0.002,-2.45747 0.004,-2.48961 0.50706,-2.74982 0.37115,-0.19193 5.3946,-0.18661 5.76727,0.006 0.34894,0.18044 0.49713,0.58177 0.49713,1.34632 0,0.7313 -0.004,0.73386 -0.69019,0.46332 -0.40052,-0.15787 -0.59004,-0.17191 -1.99978,-0.14817 -1.86918,0.0315 -1.79802,-0.0113 -1.79607,1.07958 8.5e-4,0.39856 0.032,0.77298 0.0695,0.83204 0.13121,0.20671 0.65997,0.27362 2.16237,0.27362 1.38378,0 1.53905,0.0151 1.79809,0.17523 0.4444,0.27465 0.46948,0.47807 0.44012,3.56974 l -0.0263,2.77132 -0.27669,0.27668 -0.27669,0.27669 -2.68664,0.0196 c -2.10409,0.0154 -2.7426,-0.005 -2.94468,-0.0945 z m -30.2626,-12.97807 c -0.25517,-0.16805 -1.817274,-1.08597 -3.471332,-2.03983 -1.654056,-0.95386 -3.074051,-1.79269 -3.155543,-1.86406 -0.140149,-0.12275 -0.148166,-1.01266 -0.148166,-16.44695 0,-17.99163 -0.04242,-16.66382 0.523085,-16.3735 0.420628,0.21595 6.868536,3.93837 6.991086,4.036 0.0821,0.0654 0.10583,1.02186 0.10583,4.26495 v 4.18064 h 1.94658 1.94659 l 0.0219,-4.45854 0.0219,-4.45854 2.54,-1.47026 c 3.79739,-2.19808 3.92014,-2.26272 4.06656,-2.14121 0.0684,0.0568 0.12444,0.23135 0.12444,0.38788 v 0.28459 l 0.28864,-0.13764 c 0.15875,-0.0757 0.34925,-0.11438 0.42333,-0.0859 0.12251,0.047 0.13458,1.53177 0.1334,16.41618 -8.4e-4,9.00047 -0.0293,16.40806 -0.0635,16.46132 -0.10579,0.16467 -6.40024,3.76204 -6.53719,3.73609 -0.089,-0.0169 -0.13694,-0.14714 -0.1546,-0.42039 l -0.0256,-0.39594 -0.2806,0.16555 c -0.59886,0.35334 -0.55723,0.93334 -0.55723,-7.7632 v -7.82261 h -1.94691 -1.94691 l -0.0216,8.10683 c -0.0214,8.03617 -0.0231,8.107 -0.19092,8.12549 -0.0931,0.0103 -0.37812,-0.11885 -0.63329,-0.2869 z"
       style="fill:#f4f9f2;stroke-width:0.08466667" />
    <path
       inkscape:connector-curvature="0"
       id="path3876"
       d="m 85.373259,184.6014 c -0.03104,-0.031 -0.05644,-0.20024 -0.05644,-0.376 0,-0.39978 -0.07344,-0.44664 -0.382349,-0.244 -0.179638,0.11784 -0.273998,0.13633 -0.354552,0.0695 -0.0882,-0.0732 -0.109766,-1.39641 -0.109766,-6.73612 0,-5.28279 -0.0217,-6.63611 -0.105833,-6.60152 -0.05821,0.0239 -2.314807,1.32086 -5.014663,2.88205 -3.654135,2.11301 -4.936349,2.8157 -5.0165,2.74918 -0.05922,-0.0491 -0.107671,-0.23709 -0.107671,-0.41766 0,-0.36138 -0.02875,-0.37846 -0.338667,-0.2013 -0.116417,0.0666 -0.259292,0.12235 -0.3175,0.124 -0.155384,0.004 -0.155384,-19.91754 0,-20.04315 0.355317,-0.28725 5.020268,-2.89894 5.113868,-2.86302 0.0698,0.0268 0.114299,0.17675 0.114299,0.38518 0,0.38785 0.0014,0.38871 0.350513,0.2082 0.524211,-0.27108 0.496154,-0.60135 0.496154,5.84047 0,3.44508 0.03194,5.90174 0.0771,5.92965 0.08449,0.0522 5.345409,-2.95684 5.446106,-3.11497 0.03421,-0.0537 0.06279,-2.57854 0.0635,-5.61068 l 0.0013,-5.51299 2.806639,-1.61736 c 1.543652,-0.88955 2.839052,-1.59733 2.878667,-1.57285 0.03961,0.0245 0.07203,0.19467 0.07203,0.37819 0,0.36495 0.07899,0.40351 0.423333,0.20667 0.116417,-0.0666 0.259388,-0.12235 0.317715,-0.124 0.08467,-0.002 0.101737,3.29385 0.08467,16.35069 l -0.02138,16.3537 -3.124581,1.8073 c -1.71852,0.99402 -3.150445,1.80731 -3.182056,1.80731 -0.03161,0 -0.08288,-0.0254 -0.113919,-0.0565 z m 15.522221,-0.25848 c -0.25611,-0.16849 -1.780114,-1.06597 -3.386664,-1.99439 -1.606551,-0.92843 -2.987676,-1.74704 -3.069167,-1.81915 -0.140141,-0.12401 -0.148167,-1.01073 -0.148167,-16.36899 0,-8.93084 0.03204,-16.25768 0.07119,-16.28188 0.03916,-0.0242 0.753531,0.34853 1.5875,0.82829 0.833969,0.47976 2.392608,1.37608 3.463642,1.99184 1.071036,0.61575 2.004486,1.17556 2.074336,1.24401 0.1083,0.10614 0.13323,0.73796 0.16933,4.29133 l 0.0423,4.16687 1.93671,0.0228 c 1.35744,0.016 1.97154,-0.006 2.05316,-0.0739 0.0961,-0.0798 0.11646,-0.86502 0.11646,-4.49103 v -4.39438 l 0.35983,-0.21355 c 2.11449,-1.25482 5.94612,-3.40785 6.00263,-3.37292 0.0397,0.0245 0.0722,0.19478 0.0722,0.3783 0,0.36495 0.079,0.40351 0.42333,0.20667 0.11642,-0.0666 0.25939,-0.12235 0.31771,-0.124 0.0847,-0.002 0.10175,3.29385 0.0847,16.35069 l -0.0214,16.3537 -3.12458,1.8073 c -1.71852,0.99402 -3.15272,1.80731 -3.18711,1.80731 -0.0954,0 -0.16531,-0.23577 -0.16531,-0.55726 0,-0.31941 -0.0564,-0.35033 -0.30132,-0.1651 -0.0904,0.0684 -0.23102,0.12552 -0.31251,0.127 -0.14005,0.003 -0.14817,-0.42114 -0.14817,-7.73394 0,-6.46241 -0.0192,-7.75255 -0.11646,-7.83329 -0.0816,-0.0677 -0.69572,-0.0898 -2.05316,-0.0739 l -1.93671,0.0228 -0.0434,8.08567 c -0.0239,4.44711 -0.0524,8.09519 -0.0635,8.10683 -0.0659,0.0694 -0.28705,-0.0238 -0.69743,-0.29376 z m 15.42289,0.20995 c -0.054,-0.054 -0.0982,-0.243 -0.0982,-0.41996 0,-0.35464 -0.0294,-0.37153 -0.33867,-0.19473 -0.11641,0.0666 -0.25929,0.12235 -0.3175,0.124 -0.0843,0.002 -0.10583,-3.66908 -0.10583,-18.08321 0,-17.18345 0.007,-18.08425 0.14817,-18.047 0.0815,0.0216 2.46692,1.37856 5.30096,3.01554 2.83403,1.63699 5.22364,2.97634 5.31024,2.97634 0.0866,0 0.47293,-0.18472 0.85853,-0.41049 2.92772,-1.71415 9.70977,-5.6004 9.77021,-5.59852 0.0412,0.001 0.17014,0.13274 0.28656,0.29212 0.16792,0.22989 0.26416,0.28628 0.46567,0.27284 l 0.254,-0.0169 0.0214,17.98275 c 0.0159,13.35982 -0.003,18.01264 -0.0751,18.09901 -0.0806,0.0972 -0.14667,0.0864 -0.40236,-0.0657 -0.16824,-0.10009 -1.29648,-0.75504 -2.50722,-1.45546 -1.21073,-0.70042 -2.45851,-1.43812 -2.77283,-1.63932 l -0.5715,-0.36583 v -7.78489 c 0,-4.28169 -0.0298,-7.80331 -0.0662,-7.82582 -0.0364,-0.0225 -1.0175,0.50852 -2.18016,1.18008 -1.16267,0.67155 -2.19015,1.22098 -2.28328,1.22095 -0.0931,-4e-5 -0.30268,-0.0816 -0.46567,-0.1812 -0.67974,-0.41551 -4.6506,-2.6969 -4.69406,-2.6969 -0.026,0 -0.0473,3.70747 -0.0473,8.23882 0,6.46347 -0.0228,8.26757 -0.10583,8.37222 -0.0774,0.0976 -3.31038,2.00033 -5.23578,3.08149 -0.0275,0.0154 -0.0941,-0.0162 -0.14817,-0.0702 z"
       style="fill:#ce6165;stroke-width:0.08466667" />
    <path
       inkscape:connector-curvature="0"
       id="path3874"
       d="m 85.455624,184.51444 c -0.02978,-0.0298 -0.05414,-0.217 -0.05414,-0.41604 0,-0.42885 -0.102841,-0.51959 -0.381744,-0.33685 -0.112731,0.0739 -0.244405,0.1343 -0.29261,0.1343 -0.05967,0 -0.08765,-2.12436 -0.08765,-6.65621 v -6.6562 l -0.1905,0.0374 c -0.104775,0.0206 -2.379532,1.30247 -5.055017,2.84861 -2.675484,1.54614 -4.913859,2.79223 -4.974166,2.76909 -0.06743,-0.0259 -0.109651,-0.18979 -0.109651,-0.42573 0,-0.4174 -0.06899,-0.45922 -0.423333,-0.25666 -0.116417,0.0666 -0.240242,0.12235 -0.275167,0.124 -0.08217,0.004 -0.08088,-19.56669 0.0013,-19.69275 0.05557,-0.0853 4.888067,-2.91025 4.978322,-2.91025 0.02029,0 0.03688,0.15015 0.03688,0.33367 0,0.42688 0.102916,0.48424 0.474953,0.26474 0.165025,-0.0974 0.335221,-0.1553 0.378213,-0.12873 0.04657,0.0288 0.07817,2.44284 0.07817,5.97264 0,4.86952 0.02017,5.93207 0.113298,5.96781 0.0933,0.0358 5.192509,-2.83286 5.538203,-3.11563 0.08268,-0.0676 0.105833,-1.28454 0.105833,-5.56335 0,-4.25244 0.02366,-5.50719 0.105833,-5.61281 0.09394,-0.12073 4.940777,-2.95653 5.267433,-3.08188 0.102292,-0.0393 0.130068,0.0159 0.130068,0.25814 0,0.38959 0.160997,0.459 0.54254,0.23388 0.159483,-0.0941 0.312203,-0.14885 0.339381,-0.12167 0.02718,0.0272 0.04941,7.33662 0.04941,16.2432 v 16.19379 l -0.232834,0.16248 c -0.168608,0.11765 -4.097791,2.39692 -5.957191,3.45568 -0.02843,0.0162 -0.07605,0.005 -0.105833,-0.0247 z m 15.388036,-0.33399 c -0.22762,-0.17379 -1.747344,-1.08691 -3.377178,-2.02915 l -2.963333,-1.71317 -0.02138,-16.18728 c -0.01921,-14.54102 -0.0081,-16.1822 0.108902,-16.13729 0.07166,0.0275 1.262379,0.70388 2.64605,1.50308 1.383672,0.7992 2.877719,1.64199 3.320099,1.87287 0.44238,0.23087 0.85196,0.48028 0.91017,0.55424 0.0814,0.10344 0.10583,1.09788 0.10583,4.31073 v 4.17627 l 2.13783,-0.0226 2.13784,-0.0226 0.0423,-4.45916 c 0.0233,-2.45254 0.0614,-4.47572 0.0847,-4.49595 0.0233,-0.0202 0.46143,-0.27606 0.97367,-0.56851 0.51223,-0.29245 1.81627,-1.0419 2.89785,-1.66545 1.08159,-0.62354 2.02456,-1.15599 2.0955,-1.18321 0.10097,-0.0387 0.12898,0.0174 0.12898,0.25855 0,0.38959 0.16101,0.459 0.54255,0.23388 0.15948,-0.0941 0.3122,-0.14885 0.33938,-0.12167 0.0272,0.0272 0.0494,7.33662 0.0494,16.2432 v 16.19379 l -0.23284,0.16248 c -0.69712,0.48645 -5.89863,3.40956 -5.99875,3.37114 -0.0773,-0.0297 -0.11841,-0.17854 -0.11841,-0.4291 0,-0.41441 -0.0958,-0.4788 -0.38599,-0.25934 -0.0904,0.0684 -0.21177,0.12551 -0.26974,0.127 -0.0832,0.002 -0.10994,-1.63464 -0.127,-7.76548 l -0.0216,-7.76817 -2.13741,-0.0226 -2.1374,-0.0226 -0.0216,8.06479 c -0.0244,9.10353 0.0418,8.37424 -0.70843,7.80138 z m 15.5176,0.25162 c -0.031,-0.031 -0.0564,-0.22154 -0.0564,-0.42333 0,-0.39978 -0.0721,-0.44066 -0.42334,-0.23989 -0.11641,0.0666 -0.24024,0.12235 -0.27516,0.124 -0.0844,0.004 -0.0823,-35.70471 0.002,-35.75687 0.0361,-0.0223 2.4025,1.30896 5.25875,2.95834 2.85624,1.64937 5.26171,2.99886 5.34548,2.99886 0.0838,0 0.73677,-0.33708 1.45109,-0.74908 0.71433,-0.41199 3.06225,-1.76877 5.21762,-3.01507 l 3.91884,-2.266 0.2543,0.2661 c 0.18383,0.19237 0.31788,0.25948 0.48382,0.24224 l 0.22953,-0.0239 0.0214,17.93075 c 0.0187,15.67549 0.006,17.93673 -0.10255,17.9783 -0.0682,0.0262 -0.28732,-0.0667 -0.48704,-0.20636 -0.19971,-0.13965 -1.31561,-0.81041 -2.47977,-1.49057 -1.16417,-0.68017 -2.32622,-1.36268 -2.58234,-1.51669 l -0.46566,-0.28003 -0.0216,-7.84686 c -0.0179,-6.50301 -0.041,-7.84687 -0.13536,-7.84687 -0.0626,0 -1.06997,0.55245 -2.23865,1.22767 -1.16868,0.67521 -2.19692,1.22766 -2.28499,1.22766 -0.0881,0 -0.36635,-0.14578 -0.6184,-0.32396 -0.55564,-0.3928 -4.43844,-2.63937 -4.56166,-2.63937 -0.0598,0 -0.0876,2.6449 -0.0876,8.32655 0,7.82453 -0.009,8.3343 -0.14816,8.45532 -0.17011,0.14785 -5.01495,2.94546 -5.10089,2.94546 -0.0312,0 -0.0821,-0.0254 -0.11317,-0.0564 z"
       style="fill:#bd252b;stroke-width:0.08466667" />
    <path
       inkscape:connector-curvature="0"
       id="path3872"
       d="m 85.455624,184.51444 c -0.02978,-0.0298 -0.05414,-0.23742 -0.05414,-0.46142 0,-0.49039 -0.299885,-0.2722 2.957746,-2.15197 l 2.503255,-1.44447 0.04233,-15.80874 0.04233,-15.80873 0.353965,-0.20106 c 0.194681,-0.11058 0.375656,-0.17936 0.402166,-0.15285 0.02651,0.0265 0.0482,7.33541 0.0482,16.24199 v 16.19379 l -0.232834,0.16248 c -0.168608,0.11765 -4.097791,2.39692 -5.957191,3.45568 -0.02843,0.0162 -0.07605,0.005 -0.105833,-0.0247 z m 15.609196,-0.16339 c -0.44555,-0.29745 -0.42334,0.12871 -0.42334,-8.12335 0,-8.55053 -0.0434,-7.94496 0.56559,-7.89482 l 0.32341,0.0266 v 8.04218 c 0,8.77598 0.0291,8.27966 -0.46566,7.94936 z m 5.64444,0.081 c -0.031,-0.031 -0.0564,-0.22067 -0.0564,-0.42138 0,-0.44067 -0.27712,-0.24301 2.95774,-2.10964 l 2.50326,-1.44447 0.0423,-15.80874 0.0423,-15.80873 0.35397,-0.20106 c 0.19468,-0.11058 0.37566,-0.17936 0.40217,-0.15285 0.0265,0.0265 0.0482,7.33541 0.0482,16.24199 v 16.19379 l -0.23284,0.16248 c -0.36978,0.25803 -5.85256,3.40505 -5.93232,3.40505 -0.0396,0 -0.0973,-0.0254 -0.1284,-0.0564 z m 9.652,0 c -0.12192,-0.12191 -0.0558,-0.76455 0.0917,-0.89131 0.0815,-0.07 1.09115,-0.67051 2.24367,-1.33438 l 2.0955,-1.20705 v -8.33074 c 0,-8.1926 0.003,-8.33074 0.16449,-8.33074 0.0905,0 0.30003,0.08 0.46567,0.17769 l 0.30117,0.1777 v 8.36052 c 0,7.85689 -0.009,8.36827 -0.14816,8.48929 -0.17011,0.14785 -5.01495,2.94546 -5.10089,2.94546 -0.0312,0 -0.0821,-0.0254 -0.11317,-0.0564 z m 20.83506,-0.16032 -0.3175,-0.20903 v -17.86344 c 0,-15.98487 0.0136,-17.86343 0.12966,-17.86343 0.0713,0 0.15227,0.059 0.17992,0.131 0.0338,0.0881 0.13696,0.12275 0.31484,0.10583 l 0.26458,-0.0252 v 17.94818 c 0,15.88928 -0.0146,17.95029 -0.127,17.96664 -0.0699,0.0102 -0.26988,-0.0756 -0.4445,-0.19058 z m -62.826801,-8.04942 c -0.124148,-0.12415 -0.0605,-0.76593 0.08879,-0.89532 0.214109,-0.18555 9.731703,-5.66418 9.930071,-5.71606 0.150469,-0.0394 0.16643,8.6e-4 0.16643,0.4192 v 0.46272 l -4.969774,2.87032 c -2.733375,1.57868 -5.011709,2.88117 -5.062962,2.89442 -0.05125,0.0132 -0.119906,-0.003 -0.15256,-0.0353 z m 52.201131,-8.67689 c -0.15134,-0.0969 -0.27385,-0.2201 -0.27225,-0.27374 0.004,-0.13753 5.0735,-3.03801 5.21492,-2.98374 0.0768,0.0295 0.11617,0.18673 0.11617,0.46436 0,0.37314 -0.0259,0.4328 -0.23284,0.53681 -0.12806,0.0644 -1.13603,0.63865 -2.23994,1.2762 -1.10391,0.63755 -2.07546,1.15854 -2.159,1.15776 -0.0835,-7.6e-4 -0.27572,-0.0807 -0.42706,-0.17765 z m -47.857137,-7.63143 6.77e-4,-6.0325 0.348288,-0.18912 c 0.191559,-0.10401 0.381745,-0.16844 0.422635,-0.14316 0.04157,0.0257 0.07437,2.69164 0.07437,6.04392 v 5.99797 l -0.301173,0.1777 c -0.588613,0.34729 -0.545566,0.80989 -0.544795,-5.85481 z m 22.029567,0.51224 c -0.0764,-0.0764 -0.1016,-1.17969 -0.1016,-4.445 0,-4.76209 -0.028,-4.52162 0.48981,-4.20116 0.45886,0.28395 0.44153,0.1097 0.44153,4.43901 0,2.2225 -0.0231,4.10116 -0.0514,4.17482 -0.062,0.16164 -0.62563,0.18505 -0.77835,0.0323 z"
       style="fill:#651419;stroke-width:0.08466667" />
    <path
       inkscape:connector-curvature="0"
       id="path3870"
       d="m 85.502506,184.09464 0.02598,-0.40223 2.642772,-1.52811 c 1.453524,-0.84047 2.691774,-1.57765 2.751666,-1.63818 0.08766,-0.0886 0.117152,-3.1892 0.151229,-15.8996 l 0.04233,-15.78953 0.275383,-0.17436 0.275384,-0.17435 -0.02138,16.2407 -0.02138,16.24071 -2.751667,1.59327 c -1.513417,0.8763 -2.896706,1.66991 -3.073976,1.76359 l -0.32231,0.17031 z m 15.541144,0.17611 -0.23283,-0.12631 v -7.82896 -7.82897 h 0.33866 0.33867 v 7.95867 c 0,6.3123 -0.0219,7.95797 -0.10583,7.95528 -0.0582,-0.002 -0.21061,-0.0602 -0.33867,-0.12971 z m 5.71013,-0.22266 0.026,-0.35576 2.64277,-1.52808 c 1.45352,-0.84044 2.69177,-1.5776 2.75166,-1.63813 0.0877,-0.0886 0.11716,-3.1892 0.15123,-15.8996 l 0.0423,-15.78953 0.27538,-0.17436 0.27538,-0.17435 -0.0214,16.24003 -0.0214,16.24003 -2.96334,1.71498 c -1.62983,0.94323 -3.01314,1.71622 -3.07403,1.71775 -0.078,0.002 -0.10302,-0.10219 -0.0847,-0.35298 z m 9.6357,0.0181 c 0,-0.3981 -0.17545,-0.27099 2.45534,-1.7789 1.00118,-0.57385 1.88701,-1.1003 1.9685,-1.16989 0.13922,-0.11888 0.14816,-0.62362 0.14816,-8.36839 0,-8.94082 -0.0279,-8.44565 0.45425,-8.0664 l 0.22309,0.17548 v 8.28082 c 0,6.52296 -0.0225,8.29883 -0.10584,8.36567 -0.20662,0.16567 -4.97712,2.89922 -5.05961,2.89922 -0.0461,0 -0.0839,-0.15192 -0.0839,-0.33761 z m 20.89151,0.18874 -0.23284,-0.14435 v -17.81309 c 0,-15.75512 0.0146,-17.80102 0.1259,-17.70861 0.0722,0.0599 0.21664,0.0817 0.33867,0.0511 l 0.21277,-0.0534 v 17.90861 c 0,14.27165 -0.0215,17.90816 -0.10584,17.90637 -0.0582,-10e-4 -0.21061,-0.0672 -0.33866,-0.14662 z m -62.886176,-8.3921 c 0,-0.18056 0.04762,-0.36701 0.105833,-0.41432 0.313329,-0.25469 9.829708,-5.68378 9.893595,-5.6443 0.04175,0.0258 0.07591,0.17748 0.07591,0.33705 0,0.24242 -0.05222,0.32381 -0.3175,0.4949 -0.631652,0.40737 -9.599676,5.55497 -9.677734,5.55497 -0.04406,0 -0.0801,-0.14773 -0.0801,-0.3283 z m 52.338526,-8.31125 c -0.14769,-0.0898 -0.26852,-0.19487 -0.26852,-0.23347 0,-0.0639 4.83916,-2.89565 4.94836,-2.89565 0.0258,0 0.047,0.16641 0.047,0.36981 v 0.3698 l -2.05316,1.18453 c -1.12925,0.6515 -2.13236,1.22588 -2.22915,1.27641 -0.13869,0.0724 -0.23289,0.0573 -0.4445,-0.0714 z m -47.879414,-1.83089 c -0.07747,-0.0775 -0.06926,-11.64771 0.0083,-11.75947 0.07925,-0.11412 0.460069,-0.37609 0.546713,-0.37609 0.0362,0 0.06583,2.67784 0.06583,5.95075 v 5.95074 l -0.245896,0.14526 c -0.276308,0.16322 -0.295936,0.16786 -0.374992,0.0888 z m 21.956894,-9.67511 c 0,-2.37772 0.0241,-4.32312 0.0535,-4.32312 0.0294,0 0.18219,0.0795 0.33946,0.17674 l 0.28597,0.17673 -0.022,4.1201 -0.022,4.1201 -0.3175,0.0263 -0.3175,0.0263 z"
       style="fill:#0f080c;stroke-width:0.08466667" />
  </g>
</svg>
