<?xml version="1.0" encoding="UTF-8" standalone="no"?>
<!-- Created with Inkscape (http://www.inkscape.org/) -->

<svg
   xmlns:dc="http://purl.org/dc/elements/1.1/"
   xmlns:cc="http://creativecommons.org/ns#"
   xmlns:rdf="http://www.w3.org/1999/02/22-rdf-syntax-ns#"
   xmlns:svg="http://www.w3.org/2000/svg"
   xmlns="http://www.w3.org/2000/svg"
   xmlns:sodipodi="http://sodipodi.sourceforge.net/DTD/sodipodi-0.dtd"
   xmlns:inkscape="http://www.inkscape.org/namespaces/inkscape"
   version="1.1"
   id="svg10"
   xml:space="preserve"
   width="1822.2375"
   height="885.47961"
   viewBox="0 0 1822.2375 885.47961"
   sodipodi:docname="Logo_4HM_typo.svg"
   inkscape:version="0.92.4 (5da689c313, 2019-01-14)"><metadata
     id="metadata16"><rdf:RDF><cc:Work
         rdf:about=""><dc:format>image/svg+xml</dc:format><dc:type
           rdf:resource="http://purl.org/dc/dcmitype/StillImage" /><dc:title></dc:title></cc:Work></rdf:RDF></metadata><defs
     id="defs14"><clipPath
       clipPathUnits="userSpaceOnUse"
       id="clipPath38"><path
         d="M 0,2000 H 2000 V 0 H 0 Z"
         id="path36"
         inkscape:connector-curvature="0" /></clipPath></defs><sodipodi:namedview
     pagecolor="#ffffff"
     bordercolor="#666666"
     borderopacity="1"
     objecttolerance="10"
     gridtolerance="10"
     guidetolerance="10"
     inkscape:pageopacity="0"
     inkscape:pageshadow="2"
     inkscape:window-width="1920"
     inkscape:window-height="1017"
     id="namedview12"
     showgrid="false"
     inkscape:zoom="0.31799999"
     inkscape:cx="911.11908"
     inkscape:cy="442.73995"
     inkscape:window-x="-8"
     inkscape:window-y="-8"
     inkscape:window-maximized="1"
     inkscape:current-layer="g18"
     fit-margin-top="0"
     fit-margin-left="0"
     fit-margin-right="0"
     fit-margin-bottom="0" /><g
     id="g18"
     inkscape:groupmode="layer"
     inkscape:label="Four Horsemen_option2"
     transform="matrix(1.3333333,0,0,-1.3333333,-422.2143,1776.073)"><g
       id="g20"
       transform="translate(1184.1078,1332.0548)"><path
         d="m 0,0 -12.658,-2.632 -1.782,1.813 -19.907,-3.514 -3.396,0.208 -320.642,-68.355 239.878,39.829 -20.981,-2.501 1.771,-2.002 -211.236,-35.904 -11.149,-2.725 -3.919,4.027 -0.439,-7.168 -2.641,0.162 1.116,-6.506 -9.17,-1.331 1.678,-3.512 -4.527,0.278 1.232,-4.62 -1.718,-3.303 6.414,-0.393 -4.781,-3.872 -0.609,-3.75 4.527,-0.277 -10.463,-3.903 6.79,-0.417 -2.802,-2.479 3.395,-0.208 -3.272,-3.965 5.659,-0.346 -5.467,-2.695 14.144,2.163 2.872,3.611 10.633,0.484 21.851,4.341 134.61,15.229 111.196,16.284 0.632,4.127 15.606,1.316 5.798,1.917 4.12,5.428 -2.857,2.825 6.037,-0.37 1.802,10.872 1.863,-0.493 -2.382,18.853 8.746,0.6 2.495,3.634 13.366,1.832 0.255,4.15 8.038,1.401 0.185,3.018 -4.481,1.032 -0.239,2.286 -2.594,0.917 32.553,5.957 -5.189,1.833 3.911,2.032 z"
         style="fill:#ed1c24;fill-opacity:1;fill-rule:nonzero;stroke:none"
         id="path22"
         inkscape:connector-curvature="0" /></g><g
       id="g24"
       transform="translate(912.4781,1287.9611)"><path
         d="m 0,0 -47.023,-99.932 4.527,-0.277 -5.082,-8.777 -5.659,0.347 -50.685,-113.34 -4.7,-2.552 -24.985,-55.461 3.773,-0.232 -7.808,-16.183 4.527,-0.278 -0.462,-7.545 4.527,-0.278 5.713,-5.651 10.349,20.572 20.3,-0.509 6.314,4.157 -4.467,-11.086 12.859,12.087 8.531,3.264 L 28.407,3.182 22.371,3.552 19.908,12.791 11.099,5 Z"
         style="fill:#ed1c24;fill-opacity:1;fill-rule:nonzero;stroke:none"
         id="path26"
         inkscape:connector-curvature="0" /></g><g
       id="g28"
       transform="translate(796.3141,1149.2705)"><path
         d="m 0,0 33.943,7.008 -8.488,0.52 121.956,18.956 -0.312,-5.093 11.053,-0.394 -13.293,-3.729 19.414,1.65 -0.659,-10.752 -21.268,-4.093 3.239,-2.755 -143.82,-28.124 1.86,11.815 10.591,5.978 -14.84,-1.173 z"
         style="fill:#ed1c24;fill-opacity:1;fill-rule:nonzero;stroke:none"
         id="path30"
         inkscape:connector-curvature="0" /></g><g
       id="g32"><g
         id="g34"
         clip-path="url(#clipPath38)"><g
           id="g40"
           transform="translate(1122.1095,1236.1605)"><path
             d="m 0,0 -1.09,-8.885 c -0.034,-0.278 0.053,-0.556 0.239,-0.765 l 0.882,-0.994 c 0.272,-0.306 0.323,-0.75 0.129,-1.11 l -6.849,-12.682 c -0.082,-0.152 -0.123,-0.324 -0.116,-0.498 l 0.192,-5.228 c 0.005,-0.116 -0.011,-0.229 -0.047,-0.339 -1.044,-3.137 -16.764,-50.65 -15.735,-62.216 l 3.333,11.098 1.567,-0.212 c 0,0 -5.524,-16.513 -1.983,-22.33 0,0 2.177,2.964 3.39,3.909 0,0 0.586,-10.25 3.104,-10.878 2.518,-0.629 4.983,0.183 4.983,0.183 0,0 -1.621,-4.385 -0.62,-4.528 1,-0.144 2.447,0.09 2.447,0.09 0,0 -1.475,-2.047 1.935,-1.731 21.031,1.947 39.927,101.313 43.496,117.303 l 0.884,-1.409 5.322,13.532 -2.08,-11.25 7.183,8.195 0.385,-10.439 7.279,16.848 0.292,-7.918 1.449,5.82 2.288,-5.683 5.336,13.173 3.322,0.122 -4.05,-14.206 5.761,1.654 -5.113,-7.952 -1.16,-2.372 2.933,-0.612 0.654,-6.464 2.024,1.516 c 0,0 -5.58,-19.978 -12.763,-44.736 -12.214,-42.096 -27.393,-95.511 -73.494,-91.354 -4.954,0.447 -18.174,2.304 -23.296,5.9 0,0 30.254,-16.997 50.596,6.46 -12.55,-6.409 -18.338,-10.137 -33.708,-7.73 -15.371,2.407 -27.92,12.749 -31.406,27 -7.418,30.324 14.975,96.229 16.604,100.955 0.061,0.177 0.171,0.33 0.319,0.445 l 5.359,4.205 c 0.389,0.305 0.944,0.271 1.292,-0.079 l 2.404,-2.42 c 0.268,-0.27 0.669,-0.359 1.026,-0.228 l 2.552,0.934 c 0.096,0.036 0.197,0.055 0.299,0.059 l 4.645,0.171 c 0.367,0.014 0.696,0.233 0.849,0.567 l 2.542,5.53 c 0.334,0.726 1.352,0.764 1.738,0.064 l 0.306,-0.554 c 0.226,-0.41 0.712,-0.6 1.157,-0.454 l 2.67,0.879 c 0.687,0.227 1.372,-0.348 1.268,-1.064 -0.155,-1.073 1.297,-1.558 1.818,-0.606 L -2,2.631 -0.259,0.787 C -0.059,0.576 0.035,0.288 0,0"
             style="fill:#ed1c24;fill-opacity:1;fill-rule:nonzero;stroke:none"
             id="path42"
             inkscape:connector-curvature="0" /></g><g
           id="g44"
           transform="translate(1248.875,1284.9482)"><path
             d="m 0,0 0.41,-0.464 2.766,-1.974 1.578,-3.705 -5.292,-27.463 -3.948,-5.531 -0.353,-5.753 3.816,3.375 c 0,0 -2.51,-5.62 -4.3,-11.284 -1.791,-5.664 -21.437,-73.025 -21.437,-73.025 l -1.797,0.11 -7.691,-31.284 2.157,-0.133 c 0,0 -5.871,-22.194 -8.539,-27.443 0,0 0.177,2.876 -1.43,3.155 -1.607,0.278 -6.524,-12.231 -6.524,-12.231 l -1.397,3.694 -2.976,-10.282 -1.915,4.087 -0.176,-2.877 -1.937,3.731 -0.286,-4.677 -1.637,-3.147 -2.083,4.277 -0.364,-5.932 -1.698,1.728 -1.717,-1.519 -1.486,2.257 -0.132,-2.157 -1.115,2.414 -1.042,-2.282 0.187,3.056 -4.383,2.073 -1.798,0.11 3.328,7.194 -1.273,2.784 -1.879,-7.102 -2.344,-2.924 -2.014,2.469 -2.697,-8.676 2.176,3.115 -4.099,-10.936 -1.79,3.177 -2.124,0.672 -1.687,1.907 0.154,2.517 16.225,43.934 0.826,4.64 5.907,11.006 0.11,1.797 c 0,0 46.286,110.475 45.802,111.407 -0.485,0.932 14.048,23.137 14.048,23.137 l 2.718,0.194 2.376,8.162 C -2.418,0.606 -0.847,0.958 0,0"
             style="fill:#ed1c24;fill-opacity:1;fill-rule:nonzero;stroke:none"
             id="path46"
             inkscape:connector-curvature="0" /></g><g
           id="g48"
           transform="translate(1203.3154,1266.0106)"><path
             d="m 0,0 c 5.623,1.956 32.822,10.032 32.822,10.032 0,0 3.155,-0.865 3.91,-0.239 0.755,0.625 4.284,3.661 4.284,3.661 0,0 43.013,6.061 46.61,-21.125 6.012,-45.432 -73.708,-61.115 -80.675,-62.177 -6.967,-1.061 -13.5,15.984 -13.335,18.68 0.165,2.697 2.986,4.554 2.986,4.554 0,0 14.972,-1.323 18.343,-0.989 30.362,3.011 55.154,28.064 52.856,36.868 C 63.636,5.218 6.688,-12.318 6.688,-12.318 l -7.412,-1.711 -4.605,-0.801 0.165,2.697 -1.949,-0.152 c 0,0 -0.702,1.803 0.173,2.832 0.875,1.029 2.812,1.722 2.812,1.722 0,0 0.578,2.806 1.269,3.034 C -2.168,-4.468 0.93,-2.493 0,0"
             style="fill:#ed1c24;fill-opacity:1;fill-rule:nonzero;stroke:none"
             id="path50"
             inkscape:connector-curvature="0" /></g><g
           id="g52"
           transform="translate(1244.0128,1213.1754)"><path
             d="m 0,0 c 0,0 18.957,-41.034 74.318,-50.383 0,0 46.967,-16.774 49.168,-16.187 2.202,0.587 4.916,3.668 4.916,3.668 0,0 50.222,-4.882 53.972,-2.586 l 3.749,2.296 c 0,0 49.715,10.398 55.986,6.72 l -0.114,-1.844 c 0,0 19.201,-4.675 19.993,-9.415 0,0 -3.751,-3.008 -3.522,-4.476 2.332,-14.938 -14.365,-16.516 -14.105,-18.173 0.259,-1.657 1.675,-2.105 1.117,-5.319 -0.558,-3.213 -46.504,-22.771 -86.931,-17.046 -16.111,2.282 -26.969,5.984 -26.969,5.984 0,0 -39.665,7.844 -42.453,9.458 -2.788,1.615 -2.883,5.951 -5.649,7.925 -2.766,1.973 -27.543,15.761 -27.543,15.761 l 4.311,-6.213 c 0,0 -58.392,13.633 -77.025,68.048 z"
             style="fill:#ed1c24;fill-opacity:1;fill-rule:nonzero;stroke:none"
             id="path54"
             inkscape:connector-curvature="0" /></g><g
           id="g56"
           transform="translate(612.2861,1080.3003)"><path
             d="m 0,0 -18.428,-34.251 c -0.194,-0.359 -0.504,-0.642 -0.88,-0.802 l -7.289,-3.103 c -0.627,-0.267 -1.05,-0.865 -1.091,-1.545 l -0.968,-15.785 c -0.014,-0.239 -0.077,-0.473 -0.183,-0.688 l -161.997,-327.422 c -0.842,-1.703 0.323,-3.714 2.219,-3.83 v 0 c 1.876,-0.115 3.043,-2.088 2.239,-3.787 l -2.447,-5.176 c -0.504,-1.066 -0.245,-2.336 0.636,-3.12 l 7.409,-6.593 c 0.445,-0.396 1.009,-0.631 1.603,-0.667 l 6.993,-0.429 2.289,-0.14 c 0.823,-0.051 1.623,0.284 2.165,0.906 l 6.554,7.519 c 0.231,0.265 0.512,0.482 0.828,0.637 l 1.345,0.663 c 1.649,0.813 3.606,-0.255 3.814,-2.082 l 0.728,-6.39 c 0.146,-1.281 1.19,-2.272 2.477,-2.351 l 5.059,-0.31 c 0.411,-0.025 0.812,-0.146 1.169,-0.353 l 5.006,-2.898 c 0.871,-0.505 1.952,-0.474 2.792,0.08 l 6.935,4.566 c 0.467,0.308 0.825,0.755 1.023,1.278 l 54.883,144.98 5.752,-0.352 95.98,261.137 c 0.06,0.164 0.096,0.336 0.107,0.51 l 0.337,5.49 0.161,2.634 c 0.1,1.63 -1.848,2.539 -3.033,1.416 L 21.99,7.66 c -1.359,-1.288 -3.536,0.098 -2.944,1.874 0.49,1.471 -0.985,2.832 -2.411,2.225 L 10.063,8.961 C 8.741,8.398 8.579,6.589 9.781,5.801 l 0.85,-0.557 c 0.7,-0.459 0.991,-1.34 0.702,-2.126 L 9.918,-0.726 C 9.55,-1.727 8.396,-2.19 7.438,-1.72 L 2.376,0.763 C 1.508,1.189 0.458,0.852 0,0"
             style="fill:#ed1c24;fill-opacity:1;fill-rule:nonzero;stroke:none"
             id="path58"
             inkscape:connector-curvature="0" /></g><g
           id="g60"
           transform="translate(724.3336,1114.813)"><path
             d="m 0,0 -83.665,-157.371 3.774,-0.231 -52.163,-118.054 -19.995,-46.12 c -0.393,-0.906 0.233,-1.927 1.219,-1.988 l 0.865,-0.053 c 0.785,-0.048 1.383,-0.723 1.335,-1.508 l -0.093,-1.512 c -0.074,-1.199 1.279,-1.944 2.254,-1.242 1.141,0.822 2.657,-0.331 2.168,-1.65 l -6.735,-18.179 c -0.048,-0.131 -0.077,-0.268 -0.086,-0.407 l -0.516,-8.419 -0.409,-6.667 c -0.048,-0.785 0.55,-1.461 1.335,-1.509 l 1.613,-0.099 c 0.464,-0.028 0.885,-0.281 1.127,-0.677 l 1.77,-2.889 c 0.572,-0.935 1.942,-0.899 2.465,0.064 l 7.04,12.952 c 0.205,0.377 0.569,0.642 0.991,0.72 l 3.538,0.658 c 0.116,0.022 0.23,0.058 0.337,0.107 l 6.568,3.034 c 0.329,0.152 0.588,0.424 0.723,0.761 l 4.513,11.202 c 0.229,0.568 0.796,0.927 1.408,0.889 l 5.934,-0.364 c 0.662,-0.04 1.264,0.382 1.453,1.017 l 3.741,12.631 c 0.021,0.07 0.037,0.143 0.046,0.216 l 0.965,7.234 c 0.015,0.115 0.044,0.227 0.087,0.335 l 8.907,22.564 13.374,32.741 4.711,6.207 88.743,203.843 c 0.056,0.129 0.089,0.268 0.098,0.409 l 0.11,1.792 c 0.075,1.232 -1.527,1.773 -2.213,0.746 -0.607,-0.908 -2.013,-0.609 -2.198,0.468 l -1.021,5.956 c -0.04,0.232 -0.011,0.471 0.083,0.687 l 0.781,1.798 c 0.478,1.098 -0.76,2.148 -1.766,1.498 l -1.405,-0.908 c -1.142,-0.739 -2.445,0.68 -1.613,1.756 l 4.266,5.515 c 0.594,0.768 0.087,1.888 -0.882,1.947 l -0.79,0.049 c -0.854,0.052 -1.385,0.951 -1.019,1.724 l 2.952,6.243 c 0.462,0.977 -0.492,2.024 -1.508,1.653 l -7.774,-2.837 c -1.031,-0.376 -1.99,0.704 -1.494,1.683 l 9.827,19.402 c 0.279,0.55 0.1,1.221 -0.415,1.558 L 1.731,0.444 C 1.136,0.834 0.334,0.628 0,0"
             style="fill:#ed1c24;fill-opacity:1;fill-rule:nonzero;stroke:none"
             id="path62"
             inkscape:connector-curvature="0" /></g><g
           id="g64"
           transform="translate(742.852,902.4625)"><path
             d="m 0,0 c 0,0 -158.515,-16.267 -165.625,-17.455 l 0.298,4.853 -134.732,-24.545 c -1.402,-0.255 -1.28,-2.303 0.142,-2.391 l 6.79,-0.416 -40.004,-8.899 c -0.038,-0.009 -0.07,-0.014 -0.108,-0.019 -1.977,-0.245 -60.193,-7.47 -68.589,-11.84 -0.202,-0.105 -0.421,-0.16 -0.648,-0.146 l -16.244,0.995 c -0.665,0.041 -1.171,0.613 -1.13,1.278 l 0.139,2.261 c 0.044,0.733 -0.57,1.336 -1.302,1.277 v 0 c -0.994,-0.081 -1.651,1.011 -1.114,1.851 l 0.925,1.449 c 0.4,0.625 0.145,1.46 -0.536,1.756 l -3.727,1.62 c -0.466,0.202 -0.755,0.674 -0.724,1.18 l 0.387,6.304 c 0.047,0.764 0.784,1.292 1.522,1.09 l 10.899,-2.977 c 0.288,-0.078 0.594,-0.047 0.861,0.087 l 5.164,2.603 c 0.613,0.309 0.845,1.067 0.509,1.666 l -3.017,5.393 c -0.385,0.687 -0.019,1.552 0.742,1.755 l 3.302,0.88 c 0.1,0.027 0.203,0.041 0.306,0.041 l 21.689,0.085 c 1.095,0.004 1.619,1.347 0.815,2.091 l -3.13,2.898 c -0.169,0.157 -0.379,0.262 -0.605,0.302 l -6.305,1.137 c -0.992,0.178 -1.34,1.423 -0.585,2.091 l 2.912,2.575 c 0.239,0.212 0.553,0.32 0.873,0.301 l 10.521,-0.645 c 1.002,-0.062 1.636,1.056 1.069,1.885 l -1.565,2.288 c -0.307,0.449 -0.275,1.048 0.077,1.463 l 2.513,2.954 c 0.246,0.289 0.613,0.446 0.992,0.423 l 25.149,-1.542 c 0.089,-0.005 0.175,-0.001 0.264,0.013 7.49,1.221 337.864,55.101 346.156,59.41 l 11.698,-3.424 12.91,-1.332 -4.006,-3.544 12.909,-1.333 -4.479,-2.431 4.281,-0.804 -0.265,-4.314 -0.165,-2.697 -8.188,-1.122 -3.566,-5.194 6.471,-0.397 -26.447,-7.581 6.405,-1.475 9.168,-0.562 z"
             style="fill:#ed1c24;fill-opacity:1;fill-rule:nonzero;stroke:none"
             id="path66"
             inkscape:connector-curvature="0" /></g><g
           id="g68"
           transform="translate(817.3228,956.7805)"><path
             d="m 0,0 -75.403,-167.512 3.595,-0.22 -3.992,-6.251 2.158,-0.132 1.533,-4.425 8.792,17.144 -2.961,-10.32 2.234,-1.544 2.266,-1.583 c 0,0 -0.973,1.793 0.893,2.797 1.866,1.004 3.127,-1.96 3.127,-1.96 l 1.978,-0.122 c 0,0 2.08,7.451 3.761,11.318 1.68,3.866 10.778,5.113 10.778,5.113 0,0 65.454,164.152 65.227,166.331 -0.228,2.179 -9.707,0.595 -9.707,0.595 L 9.385,5.92 c 0,0 2.955,2.022 0.82,2.514 C 8.07,8.925 0,0 0,0"
             style="fill:#ed1c24;fill-opacity:1;fill-rule:nonzero;stroke:none"
             id="path70"
             inkscape:connector-curvature="0" /></g><g
           id="g72"
           transform="translate(814.7773,906.4152)"><path
             d="m 0,0 c 0,0 9.031,-91.995 73.501,-104.336 48.082,-9.205 86.071,12.73 86.071,12.73 l 2.801,-2.879 -2.185,-4.737 1.755,-2.273 3.621,1.672 -0.082,-1.348 -0.612,-9.976 4.144,1.37 1.232,-1.97 c 0,0 -12.172,-8.727 -11.479,-10.664 0.693,-1.937 2.146,-4.733 2.146,-4.733 0,0 -37.872,-21.766 -42.742,-21.739 -4.87,0.028 -16.124,-2.53 -16.124,-2.53 0,0 -20.778,1.003 -23.711,1.724 -2.933,0.721 -1.403,3.604 -1.403,3.604 l 6.708,-0.952 -13.284,4.062 -0.005,4.331 -12.122,5.344 -0.975,-2.647 c 0,0 -61.523,21.737 -76.342,111.148 z"
             style="fill:#ed1c24;fill-opacity:1;fill-rule:nonzero;stroke:none"
             id="path74"
             inkscape:connector-curvature="0" /></g><g
           id="g76"
           transform="translate(967.4809,936.881)"><path
             d="M 0,0 C 8.829,5.684 16.366,15.317 12.143,21.489 7.92,27.662 -31.708,21.4 -35.592,2.181 c -3.55,-17.565 36.03,-30.355 37.18,-33.674 l -4.314,0.265 c 0,0 9.96,-5.302 13.905,-11.588 0,0 -3.27,1.102 -4.529,1.179 0,0 2.946,-1.984 4.342,-4.235 0,0 -3.608,1.484 -6.202,0.38 0,0 10.275,-6.043 10.73,-10.401 l -2.517,0.154 c 0,0 3.521,-9.776 2.325,-18.005 -2.184,-15.023 -15.817,-28.441 -31.739,-35.044 0,0 8.504,0.381 12.341,4.115 0,0 -5.822,-6.68 -9.494,-7.718 l 5.704,1.816 c 0,0 -9.472,-7.358 -22.723,-11.598 0,0 15.702,3.032 18.27,6.638 0,0 -38.099,-15.167 -69.689,-6.554 -31.589,8.612 -32.978,33.055 -32.978,33.055 l 6.303,-0.206 1.471,0.451 -4.314,9.106 0.122,1.977 3.65,0.679 c 0,0 1.134,9.674 4.502,11.633 l 17.803,1.976 c 0,0 -4.601,-22.092 18.708,-30.377 23.309,-8.285 45.908,4.223 43.61,28.542 -1.22,12.911 -48.143,39.834 -46.018,58.755 5.957,53.043 71.078,64.569 82.942,63.842 l 0.543,-2.92 c 0,0 39.818,-3.884 38.291,-22.916 C 51.105,12.475 36.28,0.212 34.002,-1.633 L 30.976,1.981 18.091,-8.055 19.298,-3.077 10.915,-10.322 10.688,-8.143 9.217,-8.594 9.54,-6.268 6.099,-3.531 3.09,-5.512 c 0,0 2.444,4.541 -3.09,5.512"
             style="fill:#ed1c24;fill-opacity:1;fill-rule:nonzero;stroke:none"
             id="path78"
             inkscape:connector-curvature="0" /></g><g
           id="g80"
           transform="translate(1033.7695,985.008)"><path
             d="m 0,0 123.683,22.011 -0.132,-2.157 3.595,-0.221 -6.692,-3.198 6.493,-0.037 15.166,0.153 -6.376,-3.94 -2.671,-2.362 8.695,0.549 1.87,-4.805 -8.269,0.506 2.744,-2.333 0.77,-5.099 -10.176,-1.181 3.866,-1.68 -27.852,-6.954 16.626,0.424 c 0,0 -62.16,-7.377 -74.26,-16.379 0,0 -32.246,3.781 -39.436,4.222 -7.191,0.44 2.355,3.103 2.355,3.103 l -4.901,2.466 8.152,3.47 -11.571,-0.374 -2.406,1.952 -1.937,3.727 1.772,2.418 -1.563,0.998 1.505,0.99 -1.328,1.886 z"
             style="fill:#ed1c24;fill-opacity:1;fill-rule:nonzero;stroke:none"
             id="path82"
             inkscape:connector-curvature="0" /></g><g
           id="g84"
           transform="translate(1048.5908,991.3169)"><path
             d="m 0,0 -60.597,-172.217 -1.454,-4.131 6.718,3.636 3.075,3.06 6.089,-0.734 5.283,-2.128 4.894,3.308 6.941,1.379 5.055,0.051 22.823,60.31 -10.985,-20.257 26.689,76.311 -0.286,-4.674 9.471,56.635 -21.682,-3.858 z"
             style="fill:#ed1c24;fill-opacity:1;fill-rule:nonzero;stroke:none"
             id="path86"
             inkscape:connector-curvature="0" /></g><g
           id="g88"
           transform="translate(1019.847,922.7096)"><path
             d="m 0,0 81.432,12.692 39.418,4.32 -2.381,-3.523 7.099,1.008 2.249,-1.581 -1.527,-1.35 1.416,-0.447 -14.003,-4.736 -0.271,1.461 -1.64,-0.261 0.829,1.754 -7.513,-1.886 5.708,-1.071 -0.715,-2.843 1.988,0.058 -2.088,-1.676 4.072,-4.219 10.672,0.428 -0.976,-1.203 -34.848,-9.231 16.956,5.817 -21.989,-5.509 2.876,-0.176 -50.891,-17.811 -0.418,2.01 -2.832,0.895 -1.875,-1.148 -4.762,-1.151 -32.536,1.994 -1.875,-1.148 0.154,2.516 -1.606,0.279 0.352,5.752 -1.977,0.122 3.533,4.655 -1.754,0.829 2.165,2.935 3.089,0.352 0.088,1.438 5.602,0.042 z"
             style="fill:#ed1c24;fill-opacity:1;fill-rule:nonzero;stroke:none"
             id="path90"
             inkscape:connector-curvature="0" /></g><g
           id="g92"
           transform="translate(990.3182,853.0678)"><path
             d="m 0,0 8.493,-3.222 -1.972,8.055 101.019,21.686 2.947,-3.429 5.409,-0.061 7.347,0.633 -6.483,-4.204 6.284,0.968 -1.563,-3.423 7.094,0.919 -3.643,2.388 1.546,3.153 -5.816,2.251 -1.816,1.284 -4.314,0.265 -1.172,2.959 19.39,2.834 -0.163,-2.66 5.662,-0.347 -0.259,-4.224 6.472,-0.396 -0.089,-1.439 -6.702,-3.378 13.85,0.775 -6.603,-1.76 8.605,0.555 -8.468,-2.729 3.219,-0.468 -5.558,-2.366 5.157,0.226 -4.969,-1.59 -0.083,-1.349 -13.24,-4.06 1.02,3.395 -5.202,-0.973 -6.263,-5.03 -2.999,-0.357 1.739,-2.542 -4.479,-2.432 4.534,-1.09 38.311,6.854 1.887,-0.116 -1.717,-1.519 0.154,-1.904 c 0,0 -18.882,-1.91 -25.089,-6.04 0,0 -8.671,-1.634 -9.766,-1.837 -1.095,-0.204 -3.61,-1.493 -3.61,-1.493 l -5.018,-2.395 -3.314,-1.064 -1.529,-2.884 -3.146,0.193 -2.968,-2.795 -5.123,0.314 -2.526,-1.469 -2.697,0.165 -1.546,-3.153 -3.731,5.371 c 0,0 -46.257,-12.862 -47.435,-14.414 l -5.904,5.233 -36.58,-8.042 -1.582,3.615 -0.414,-6.741 -2.734,3.957 0.33,5.393 -2.949,0.451 -3.092,6.956 3.445,7.637 3.026,-8.034 4.117,9.762 4.352,-4.056 0.127,6.488 z"
             style="fill:#ed1c24;fill-opacity:1;fill-rule:nonzero;stroke:none"
             id="path94"
             inkscape:connector-curvature="0" /></g><g
           id="g96"
           transform="translate(1144.5621,852.6361)"><path
             d="M 0,0 25.295,68.277 9.682,34.32 l 27.491,77.616 4.314,-0.264 25.496,98.036 8.298,-5.921 1.156,18.874 5.172,-12.767 4.413,1.354 -0.495,-8.089 10.136,6.415 -61.844,-223.014 -3.609,2.928 24.145,99.562 -31.717,-99.459 -2.707,2.944 0.293,4.782 -2.252,4.468 2.415,9.957 L 17.173,12.3 14.979,5.938 13.783,9.981 9.373,-3.101 7.487,-4.428 5.551,-6.584 3.034,-6.43 Z"
             style="fill:#ed1c24;fill-opacity:1;fill-rule:nonzero;stroke:none"
             id="path98"
             inkscape:connector-curvature="0" /></g><g
           id="g100"
           transform="translate(1191.816,1073.1163)"><path
             d="m 0,0 49.288,-161.441 0.33,5.393 3.529,-1.299 0.551,8.988 2.803,4.519 2.442,-13.141 2.598,7.058 9.098,1.247 -4.716,17.25 -38.342,139.84 -4.007,-12.385 -5.84,16.597 -2.913,-3.069 -6.454,1.839 6.057,-8.31 -2.421,-7.43 -4.341,4.235 -0.331,-5.392 -3.31,6.337 0.726,-5.818 z"
             style="fill:#ed1c24;fill-opacity:1;fill-rule:nonzero;stroke:none"
             id="path102"
             inkscape:connector-curvature="0" /></g><g
           id="g104"
           transform="translate(1214.6827,910.4076)"><path
             d="m 0,0 8.09,17.187 -3.417,1.652 0.22,3.596 -3.38,2.252 89.523,165.323 -5.497,-24.924 16.158,34.014 2.876,-0.176 -12.276,-29.56 6.89,6.434 3.734,-3.838 21.58,28.269 3.265,-5.614 6.802,4.997 c 0,0 4.056,-10.353 3.565,-12.488 -0.492,-2.135 -87.487,-296.954 -87.487,-296.954 l -2.954,4.782 -2.438,-4.452 -5.198,-2.376 -2.708,-9.589 -2.022,0.124 -0.597,-0.911 c 0,0 -0.476,3.277 -1.015,3.31 -0.54,0.033 -2.163,-2.168 -2.163,-2.168 0,0 4.249,11.919 3.322,12.246 -0.928,0.328 -4.654,-11.894 -4.654,-11.894 l -2.699,-4.3 -0.944,0.058 -0.344,-1.197 c 0,0 -0.525,2.468 -1.73,2.677 -1.205,0.21 -2.045,-2.446 -2.045,-2.446 0,0 -0.91,7.228 -1.592,7.135 -0.683,-0.094 -0.411,-2.275 -0.411,-2.275 0,0 -0.951,-0.077 -1.092,-2.369 0,0 -1.425,1.034 -1.973,0.933 -0.547,-0.102 -0.19,-3.101 -0.19,-3.101 0,0 -1.865,2.685 -2.278,2.575 -0.412,-0.11 -1.497,-2.344 -1.497,-2.344 l -0.594,3.555 -1.541,-0.853 74.178,245.399 -35.546,-73.603 -3.837,5.106 -27.32,-65.988 1.677,6.754 -5.045,-8.712 1.171,7.326 -5.944,-8.658 1.226,8.225 -1.618,0.099 -1.948,-5.293 -1.614,6.053 -2.396,-6.71 0.554,6.101 -1.706,-1.339 -0.465,4.179 -1.901,1.379 z"
             style="fill:#ed1c24;fill-opacity:1;fill-rule:nonzero;stroke:none"
             id="path106"
             inkscape:connector-curvature="0" /></g><g
           id="g108"
           transform="translate(1369.9052,1051.6149)"><path
             d="m 0,0 -6.68,-14.237 -34.873,-106.818 -4.4,-2.887 -7.661,-31.026 -8.498,-35.448 3.456,4.683 1.834,-2.21 3.347,3.966 2.153,-0.327 1.556,-2.473 1.166,3.212 3.262,0.725 4.348,11.236 2.168,0.213 -3.006,-11.541 3.227,-0.625 1.13,1.862 0.987,6.73 3.387,2.072 52.186,158.88 -4.008,1.726 c 0,0 -5.593,-7.149 -6.929,-6.573 -1.336,0.575 -0.121,5.678 -0.121,5.678 l -2.885,3.318 c 0,0 -0.782,-9.167 -3.475,-8.826 -2.693,0.341 3.069,13.971 3.069,13.971 z"
             style="fill:#ed1c24;fill-opacity:1;fill-rule:nonzero;stroke:none"
             id="path110"
             inkscape:connector-curvature="0" /></g><g
           id="g112"
           transform="translate(1359.7604,1027.7321)"><path
             d="m 0,0 c 0,0 4.907,5.47 3.674,6.683 -1.233,1.213 -6.836,-3.1 -6.836,-3.1 l -4.322,-11.233 1.239,-5.558 -20.39,-5.51 1.846,-3.177 17.585,1.996 0.01,-3.803 -10.884,-1.598 2.653,-3.259 51.894,5.532 -0.332,-3.225 75.516,13.425 -4.644,2.378 -2.687,0.276 -0.131,1.372 -24.421,-5.096 26.365,8.155 c 0,0 -6.608,1.765 -8.399,5.479 0,0 2.213,3.032 2.378,4.644 0.166,1.612 -0.096,4.355 -0.096,4.355 l 6.181,-0.635 -0.633,4.41 -9.089,-1.239 1.544,4.458 z"
             style="fill:#ed1c24;fill-opacity:1;fill-rule:nonzero;stroke:none"
             id="path114"
             inkscape:connector-curvature="0" /></g><g
           id="g116"
           transform="translate(1327.9678,964.9369)"><path
             d="M 0,0 C 0,0 5.91,-2.693 6.159,-0.819 6.408,1.056 26.65,5.722 26.65,5.722 l 21.368,2.882 0.342,1.864 11.118,-1.753 23.135,1.83 4.605,1.84 -5.088,0.676 31.686,2.6 -3.802,-1.947 1.661,-1.856 -8.122,-1.645 9.266,-2.05 c 0,0 -7.069,0.123 -6.747,-1.555 0.321,-1.678 6.426,-0.855 6.426,-0.855 l -2.195,-2.16 1.626,-2.124 -18.422,-3.274 3.678,-1.034 14.352,1.362 -0.356,-2.678 5.463,0.092 -0.25,-1.875 -2.35,-4.046 3.213,-0.427 -25.187,-2.919 -81.786,-12.517 -4.674,20.9 -6.002,2.001 z"
             style="fill:#ed1c24;fill-opacity:1;fill-rule:nonzero;stroke:none"
             id="path118"
             inkscape:connector-curvature="0" /></g><g
           id="g120"
           transform="translate(1309.0645,902.8376)"><path
             d="m 0,0 79.908,11.3 -0.461,-3.048 2.43,0.412 12.845,2.735 6.544,-0.99 1.503,-4.515 -3.08,-1.093 12.224,-1.069 1.283,-7.593 3.043,-3.968 -115.411,-15.799 -3.243,6.846 -2.137,0.324 -2.511,4.472 0.562,3.715 6.67,0.746 z"
             style="fill:#ed1c24;fill-opacity:1;fill-rule:nonzero;stroke:none"
             id="path122"
             inkscape:connector-curvature="0" /></g><g
           id="g124"
           transform="translate(1413.744,872.8446)"><path
             d="m 0,0 c 1.914,1.789 14.924,19.757 14.11,24.137 -0.814,4.38 -2.068,5.901 -2.068,5.901 l 2.666,2.723 20.911,59.705 3.595,-0.22 37.555,109.578 c 0.141,0.411 0.539,0.677 0.972,0.651 l 4.628,-0.284 c 0.352,-0.021 0.664,-0.233 0.814,-0.551 l 0.85,-1.797 c 0.306,-0.647 1.184,-0.749 1.629,-0.189 l 6.692,8.413 c 0.313,0.393 0.875,0.481 1.292,0.202 l 2.96,-1.979 c 0.285,-0.191 0.448,-0.519 0.427,-0.862 l -0.619,-10.107 c -0.061,-0.995 -1.406,-1.256 -1.836,-0.357 l -0.666,1.393 c -0.36,0.754 -1.44,0.732 -1.761,-0.04 -0.967,-2.332 -2.45,-6.063 -2.621,-7.415 -0.013,-0.097 -0.034,-0.186 -0.075,-0.275 l -4.804,-10.674 c -0.357,-0.793 0.433,-1.617 1.24,-1.293 l 0.875,0.351 c 0.786,0.315 1.569,-0.463 1.258,-1.251 -0.421,-1.066 1.034,-1.847 1.69,-0.908 l 3.363,4.816 c 0.334,0.477 1.009,0.553 1.44,0.162 l 0.406,-0.367 c 0.296,-0.268 0.399,-0.684 0.255,-1.057 -3.066,-7.948 -34.955,-90.769 -35.48,-99.324 0,0 -15.842,-34.755 -14.962,-38.057 0.88,-3.302 -7.539,-22.914 -7.539,-22.914 L 50.884,42.788 51.672,44.209 37.331,14.414 34.352,7.018 34.579,4.839 30.852,2.903 29.84,-1.829 25.166,-1.542 c 0,0 -6.29,-14.308 -8.85,-14.873 -2.561,-0.565 -5.305,1.769 -5.305,1.769 0,0 4.505,8.745 3.526,10.429 -0.979,1.684 -7.715,-2.234 -7.715,-2.234 0,0 1.778,5.461 0.368,6.01 C 5.781,0.109 0,0 0,0"
             style="fill:#ed1c24;fill-opacity:1;fill-rule:nonzero;stroke:none"
             id="path126"
             inkscape:connector-curvature="0" /></g><g
           id="g128"
           transform="translate(1471.8499,1046.2596)"><path
             d="m 0,0 37,-131.561 -3.939,1.273 -0.294,-16.206 3.936,-1.513 2.641,-13.297 1.773,-1.553 -0.052,-2.881 5.161,-13.422 5.586,-9.828 c 0,0 0.626,-3.489 2.806,-2.448 2.181,1.041 3.349,5.884 3.349,5.884 l 4.66,-1.293 0.082,4.527 5.342,-3.417 -4.568,6.387 -0.147,1.804 1.98,-0.036 -2.111,2.74 0.572,1.791 4.469,-1.882 -3.143,5.461 5.546,-2.082 c 0,0 27.948,128.538 140.84,245.376 l -1.581,2.19 -0.457,4.602 -2.161,0.039 c 0,0 1.419,3.757 1.173,5.112 -0.246,1.356 -6.482,0.118 -6.482,0.118 0,0 -6.537,7.754 -7.843,10.21 -1.307,2.455 -9.213,-1.455 -9.213,-1.455 l 1.934,2.363 -3.511,0.064 c 0,0 9.399,11.752 8.907,14.462 -0.491,2.711 -4.272,2.78 -5.907,1.999 -1.636,-0.781 -13.794,-15.692 -15.405,-15.122 -1.61,0.569 2.043,8.339 -0.909,9.473 -2.951,1.134 -22.888,-25.524 -22.888,-25.524 l -2.861,1.133 -7.863,-16.429 -5.486,-4.584 -4.839,-8.559 -1.878,-4.289 -24.467,-39.924 -7.537,-16.537 -1.975,-9.57 2.161,-0.039 c 0,0 -17.257,-37.874 -18.363,-39.295 -1.107,-1.421 -4.459,-7.485 -4.459,-7.485 l -12.391,-47.688 c 0,0 -12.689,75.161 -14.399,80.236 -0.67,1.99 -0.534,-3.515 -0.121,-10.943 0.099,-1.786 -2.514,-2.095 -2.822,-0.332 v 0 c -0.298,1.71 -2.815,1.498 -2.825,-0.237 l -0.023,-4.453 c -0.008,-1.578 -2.195,-1.977 -2.753,-0.501 -6.417,16.984 -22.129,58.13 -23.838,58.462 L 12.005,0.143 4.252,9.65 7.849,-2.199 -2.256,8.327 6.936,-5.291 Z"
             style="fill:#ed1c24;fill-opacity:1;fill-rule:nonzero;stroke:none"
             id="path130"
             inkscape:connector-curvature="0" /></g><g
           id="g132"
           transform="translate(990.0241,1109.752)"><path
             d="M 0,0 C -28.241,5.748 4.88,67.648 18.234,69.515 7.618,71.182 -11.731,38.497 -12.382,35.849 -12.428,56.516 14.451,88.016 34.223,80.169 60.678,69.671 35.133,-7.151 0,0 m 65.284,46.53 c 0,0 4.297,-18.065 -16.834,-50.8 32.231,37.257 39.662,107.535 -9.164,110.885 -81.141,5.567 -107.42,-108.019 -56.219,-131.112 18.449,-8.321 39.581,-1.496 55.416,13.035 7.563,10.802 24.513,33.649 26.801,57.992"
             style="fill:#ed1c24;fill-opacity:1;fill-rule:nonzero;stroke:none"
             id="path134"
             inkscape:connector-curvature="0" /></g><g
           id="g136"
           transform="translate(889.6771,950.9025)"><path
             d="m 0,0 c -13.212,37.618 -84.487,0.757 -84.487,0.757 -6.571,-10.062 -1.145,-18.694 -1.145,-18.694 1.123,0.652 52.179,25.581 57.383,6.429 2.74,-10.086 -11.155,-34.147 -59.94,-47.036 -10.484,-3.03 -3.904,-19.172 -3.904,-19.172 15.03,0 33.441,4.113 50.016,11.576 12.073,8.557 24.069,21.103 25.401,32.791 0,0 2.864,-6.184 -10.399,-24.729 C -5.666,-44.407 8.535,-24.302 0,0"
             style="fill:#ed1c24;fill-opacity:1;fill-rule:nonzero;stroke:none"
             id="path138"
             inkscape:connector-curvature="0" /></g><g
           id="g140"
           transform="translate(711.4457,824.0299)"><path
             d="m 0,0 c -1.673,-3.01 -8.332,-7.88 -9.251,-7.417 -0.919,0.462 -0.379,0.429 -1.188,0.479 -0.809,0.049 -6.062,-3.959 -7.495,-3.059 -1.035,0.649 1.497,3.19 2.988,4.556 -0.957,-0.682 -2.525,-1.398 -4.375,-0.682 -5.816,2.251 0.291,24.611 12.387,36.5 C -14.484,28.629 -21.857,7.7 -21.857,7.7 c 0,0 -5.493,-2.97 -6.124,-0.572 C -29.97,14.68 -9.97,56.522 9.829,52.174 37.894,46.012 12.491,-10.374 -8.225,-12.758 1.709,1.384 0,0 0,0 m 36.304,23.22 c 0,0 4.339,-5.085 -0.993,-30.792 19.623,33.667 17.992,79.042 -24.48,80.525 -65.442,2.285 -91.69,-103.881 -39.758,-115.296 17.335,-3.81 33.166,1.961 45.869,12.624 12.832,15.009 21.848,28.913 19.362,52.939"
             style="fill:#ed1c24;fill-opacity:1;fill-rule:nonzero;stroke:none"
             id="path142"
             inkscape:connector-curvature="0" /></g></g></g></g></svg>